<svg xmlns="http://www.w3.org/2000/svg" width="300" height="380" viewBox="0 0 300 380"><defs><radialGradient id="bg" cx="50%" cy="38%" r="70%"><stop offset="0" stop-color="#59329a"/><stop offset=".6" stop-color="#1d1649"/><stop offset="1" stop-color="#0c0b25"/></radialGradient><filter id="glow"><feGaussianBlur stdDeviation="8" result="b"/><feMerge><feMergeNode in="b"/><feMergeNode in="SourceGraphic"/></feMerge></filter></defs><rect width="300" height="380" rx="28" fill="url(#bg)"/><circle cx="150" cy="170" r="112" fill="#8b5be0" opacity=".12"/><path d="M74 130 94 48l62 62 61-61 15 83c28 20 43 58 36 97-10 59-58 100-117 100-61 0-110-43-118-104-5-39 11-75 41-95Z" fill="#10121d" stroke="#44395e" stroke-width="7"/><path d="M86 117 99 73l35 36M214 117 201 72l-35 37" fill="#1c1e2d"/><ellipse cx="115" cy="174" rx="25" ry="31" fill="#f5c62f" filter="url(#glow)"/><ellipse cx="185" cy="174" rx="25" ry="31" fill="#f5c62f" filter="url(#glow)"/><ellipse cx="115" cy="177" rx="7" ry="17" fill="#121524"/><ellipse cx="185" cy="177" rx="7" ry="17" fill="#121524"/><path d="m142 213 8-7 8 7-8 8Z" fill="#e991a2"/><path d="M121 233q29 23 58 0" fill="none" stroke="#d9d0dc" stroke-width="5" stroke-linecap="round"/><path d="M119 214 64 201M119 224 57 227M181 214l55-13M181 224l62 3" stroke="#ddd7e5" stroke-width="3" opacity=".75"/><path d="M84 297q66 32 132 0l-6 52H90Z" fill="#1b1c2c"/><circle cx="150" cy="306" r="17" fill="#d89c2e" stroke="#ffd469" stroke-width="4"/><path d="M143 303h14M150 296v14" stroke="#5b2766" stroke-width="3"/></svg>